# Blender3D v249 OBJ File: 
# www.blender3d.org
v 0.707107 0.707107 -1.000000
v 0.831470 0.555570 -1.000000
v 0.923880 0.382683 -1.000000
v 0.980785 0.195090 -1.000000
v 1.000000 -0.000000 -1.000000
v 0.980785 -0.195090 -1.000000
v 0.923880 -0.382683 -1.000000
v 0.831470 -0.555570 -1.000000
v 0.707107 -0.707107 -1.000000
v 0.555570 -0.831470 -1.000000
v 0.382683 -0.923880 -1.000000
v 0.195090 -0.980785 -1.000000
v -0.000000 -1.000000 -1.000000
v -0.195091 -0.980785 -1.000000
v -0.382684 -0.923879 -1.000000
v -0.555571 -0.831469 -1.000000
v -0.707107 -0.707106 -1.000000
v -0.831470 -0.555570 -1.000000
v -0.923880 -0.382683 -1.000000
v -0.980785 -0.195090 -1.000000
v -1.000000 0.000001 -1.000000
v -0.980785 0.195091 -1.000000
v -0.923879 0.382684 -1.000000
v -0.831469 0.555571 -1.000000
v -0.707106 0.707108 -1.000000
v -0.555569 0.831470 -1.000000
v -0.382682 0.923880 -1.000000
v -0.195089 0.980785 -1.000000
v 0.000002 1.000000 -1.000000
v 0.195092 0.980785 -1.000000
v 0.382685 0.923879 -1.000000
v 0.555572 0.831468 -1.000000
v 0.707108 0.707106 1.000000
v 0.831471 0.555569 1.000000
v 0.923880 0.382682 1.000000
v 0.980786 0.195088 1.000000
v 1.000000 -0.000002 1.000000
v 0.980785 -0.195092 1.000000
v 0.923879 -0.382685 1.000000
v 0.831469 -0.555571 1.000000
v 0.707106 -0.707107 1.000000
v 0.555570 -0.831470 1.000000
v 0.382684 -0.923879 1.000000
v 0.195091 -0.980785 1.000000
v 0.000001 -1.000000 1.000000
v -0.195089 -0.980785 1.000000
v -0.382682 -0.923880 1.000000
v -0.555568 -0.831471 1.000000
v -0.707105 -0.707108 1.000000
v -0.831468 -0.555573 1.000000
v -0.923878 -0.382686 1.000000
v -0.980785 -0.195094 1.000000
v -1.000000 -0.000004 1.000000
v -0.980786 0.195086 1.000000
v -0.923881 0.382679 1.000000
v -0.831473 0.555566 1.000000
v -0.707111 0.707103 1.000000
v -0.555575 0.831466 1.000000
v -0.382689 0.923877 1.000000
v -0.195097 0.980784 1.000000
v -0.000007 1.000000 1.000000
v 0.195083 0.980787 1.000000
v 0.382676 0.923883 1.000000
v 0.555563 0.831474 1.000000
v 0.000000 -0.000000 -1.000000
v 0.000000 0.000000 1.000000
vt 0.500000 0.500000
vt 0.853553 0.853553
vt 0.915735 0.777785
vt 0.915735 0.777784
vt 0.853554 0.853553
vt 0.961940 0.691342
vt 0.961940 0.691341
vt 0.990393 0.597545
vt 0.990393 0.597544
vt 1.000000 0.500000
vt 1.000000 0.499999
vt 0.990393 0.402455
vt 0.990392 0.402454
vt 0.961940 0.308658
vt 0.961939 0.308658
vt 0.915735 0.222215
vt 0.915735 0.222214
vt 0.853553 0.146447
vt 0.853553 0.146446
vt 0.777785 0.084265
vt 0.691342 0.038060
vt 0.597545 0.009607
vt 0.500000 0.000000
vt 0.402455 0.009607
vt 0.308658 0.038060
vt 0.308659 0.038060
vt 0.222215 0.084265
vt 0.222216 0.084265
vt 0.146446 0.146447
vt 0.146448 0.146446
vt 0.084265 0.222215
vt 0.084266 0.222214
vt 0.038060 0.308659
vt 0.038061 0.308657
vt 0.009607 0.402455
vt 0.009608 0.402453
vt 0.000000 0.500000
vt 0.000000 0.499998
vt 0.009607 0.597546
vt 0.009607 0.597543
vt 0.038060 0.691342
vt 0.038059 0.691339
vt 0.084266 0.777786
vt 0.084264 0.777783
vt 0.146447 0.853554
vt 0.146445 0.853551
vt 0.222215 0.915735
vt 0.222212 0.915733
vt 0.308659 0.961940
vt 0.308655 0.961939
vt 0.402456 0.990393
vt 0.402451 0.990392
vt 0.500001 1.000000
vt 0.499996 1.000000
vt 0.597546 0.990392
vt 0.597541 0.990393
vt 0.691343 0.961939
vt 0.691338 0.961941
vt 0.777786 0.915734
vt 0.777782 0.915737
vt 0.853553 0.000000
vt 0.853553 1.000000
vt 0.777784 1.000000
vt 0.777785 0.000000
vt 0.691341 1.000000
vt 0.691342 0.000000
vt 0.597544 1.000000
vt 0.597545 0.000000
vt 0.499999 1.000000
vt 0.402454 1.000000
vt 0.402455 0.000000
vt 0.308658 1.000000
vt 0.308658 0.000000
vt 0.222214 1.000000
vt 0.222215 0.000000
vt 0.146446 1.000000
vt 0.146447 0.000000
vt 0.777785 1.000000
vt 0.691342 1.000000
vt 0.597545 1.000000
vt 0.500000 1.000000
vt 0.402455 1.000000
vt 0.308659 1.000000
vt 0.222216 1.000000
vt 0.146448 1.000000
vt 0.146446 0.000000
vt 0.308657 1.000000
vt 0.308659 0.000000
vt 0.402453 1.000000
vt 0.499998 1.000000
vt 0.597543 1.000000
vt 0.597546 0.000000
vt 0.691339 1.000000
vt 0.777783 1.000000
vt 0.777786 0.000000
vt 0.853551 1.000000
vt 0.853554 0.000000
vt 0.146445 1.000000
vt 0.222212 1.000000
vt 0.308655 1.000000
vt 0.402451 1.000000
vt 0.402456 0.000000
vt 0.500001 0.000000
vt 0.597541 1.000000
vt 0.691338 1.000000
vt 0.691343 0.000000
vt 0.777782 1.000000
vt 0.853553 1.001953
vt 0.777786 1.001953
vt 0.777782 0.000000
vn -0.000000 -0.000000 -1.000000
vn 0.000000 0.000000 1.000000
vn 0.000000 -0.000001 -1.000000
vn 0.000000 0.000001 1.000000
vn 0.773011 0.634393 -0.000000
vn 0.881922 0.471396 -0.000000
vn 0.956941 0.290284 -0.000000
vn 0.995185 0.098016 -0.000000
vn 0.995185 -0.098018 0.000000
vn 0.956940 -0.290285 0.000000
vn 0.881921 -0.471397 0.000000
vn 0.773010 -0.634394 0.000000
vn 0.634393 -0.773010 0.000000
vn 0.471397 -0.881921 0.000000
vn 0.290285 -0.956940 0.000000
vn 0.098017 -0.995185 0.000000
vn -0.098017 -0.995185 0.000000
vn -0.290284 -0.956940 0.000000
vn -0.471396 -0.881922 0.000000
vn -0.634393 -0.773011 0.000000
vn -0.773010 -0.634394 0.000000
vn -0.881921 -0.471398 0.000000
vn -0.956940 -0.290286 0.000000
vn -0.995185 -0.098019 -0.000000
vn -0.995185 0.098016 -0.000000
vn -0.956941 0.290283 -0.000000
vn -0.881922 0.471395 -0.000000
vn -0.773012 0.634392 -0.000000
vn -0.634395 0.773009 -0.000000
vn -0.471399 0.881920 -0.000000
vn -0.290287 0.956940 -0.000000
vn -0.098020 0.995184 -0.000000
vn 0.098014 0.995185 -0.000000
vn 0.290282 0.956941 -0.000000
vn 0.471394 0.881923 -0.000000
vn 0.634392 0.773011 0.000000
usemtl (null)
s off
f 65/1/1 1/2/1 2/3/1
f 66/1/2 34/4/2 33/5/2
f 65/1/3 2/3/3 3/6/3
f 66/1/2 35/7/2 34/4/2
f 65/1/1 3/6/1 4/8/1
f 66/1/2 36/9/2 35/7/2
f 65/1/1 4/8/1 5/10/1
f 66/1/2 37/11/2 36/9/2
f 65/1/1 5/10/1 6/12/1
f 66/1/2 38/13/2 37/11/2
f 65/1/1 6/12/1 7/14/1
f 66/1/2 39/15/2 38/13/2
f 65/1/1 7/14/1 8/16/1
f 66/1/4 40/17/4 39/15/4
f 65/1/1 8/16/1 9/18/1
f 66/1/2 41/19/2 40/17/2
f 65/1/1 9/18/1 10/20/1
f 66/1/2 42/20/2 41/19/2
f 65/1/1 10/20/1 11/21/1
f 66/1/2 43/21/2 42/20/2
f 65/1/1 11/21/1 12/22/1
f 66/1/2 44/22/2 43/21/2
f 65/1/1 12/22/1 13/23/1
f 66/1/2 45/23/2 44/22/2
f 65/1/1 13/23/1 14/24/1
f 66/1/2 46/24/2 45/23/2
f 65/1/1 14/24/1 15/25/1
f 66/1/2 47/26/2 46/24/2
f 65/1/1 15/25/1 16/27/1
f 66/1/2 48/28/2 47/26/2
f 65/1/1 16/27/1 17/29/1
f 66/1/2 49/30/2 48/28/2
f 65/1/1 17/29/1 18/31/1
f 66/1/2 50/32/2 49/30/2
f 65/1/1 18/31/1 19/33/1
f 66/1/4 51/34/4 50/32/4
f 65/1/1 19/33/1 20/35/1
f 66/1/2 52/36/2 51/34/2
f 65/1/1 20/35/1 21/37/1
f 66/1/2 53/38/2 52/36/2
f 65/1/1 21/37/1 22/39/1
f 66/1/2 54/40/2 53/38/2
f 65/1/1 22/39/1 23/41/1
f 66/1/2 55/42/2 54/40/2
f 65/1/3 23/41/3 24/43/3
f 66/1/2 56/44/2 55/42/2
f 65/1/1 24/43/1 25/45/1
f 66/1/2 57/46/2 56/44/2
f 65/1/1 25/45/1 26/47/1
f 66/1/2 58/48/2 57/46/2
f 65/1/1 26/47/1 27/49/1
f 66/1/2 59/50/2 58/48/2
f 65/1/1 27/49/1 28/51/1
f 66/1/2 60/52/2 59/50/2
f 65/1/1 28/51/1 29/53/1
f 66/1/2 61/54/2 60/52/2
f 65/1/1 29/53/1 30/55/1
f 66/1/2 62/56/2 61/54/2
f 65/1/1 30/55/1 31/57/1
f 66/1/2 63/58/2 62/56/2
f 65/1/1 31/57/1 32/59/1
f 66/1/2 64/60/2 63/58/2
f 32/59/1 1/2/1 65/1/1
f 66/1/2 33/5/2 64/60/2
f 1/61/5 33/62/5 34/63/5 2/64/5
f 2/64/6 34/63/6 35/65/6 3/66/6
f 3/66/7 35/65/7 36/67/7 4/68/7
f 4/68/8 36/67/8 37/69/8 5/23/8
f 5/23/9 37/69/9 38/70/9 6/71/9
f 6/71/10 38/70/10 39/72/10 7/73/10
f 7/73/11 39/72/11 40/74/11 8/75/11
f 8/75/12 40/74/12 41/76/12 9/77/12
f 9/61/13 41/62/13 42/78/13 10/64/13
f 10/64/14 42/78/14 43/79/14 11/66/14
f 11/66/15 43/79/15 44/80/15 12/68/15
f 12/68/16 44/80/16 45/81/16 13/23/16
f 13/23/17 45/81/17 46/82/17 14/71/17
f 14/71/18 46/82/18 47/83/18 15/73/18
f 15/73/19 47/83/19 48/84/19 16/75/19
f 16/75/20 48/84/20 49/85/20 17/86/20
f 17/77/21 49/76/21 50/74/21 18/75/21
f 18/75/22 50/74/22 51/87/22 19/88/22
f 19/88/23 51/87/23 52/89/23 20/71/23
f 20/71/24 52/89/24 53/90/24 21/23/24
f 21/23/25 53/90/25 54/91/25 22/92/25
f 22/92/26 54/91/26 55/93/26 23/66/26
f 23/66/27 55/93/27 56/94/27 24/95/27
f 24/95/28 56/94/28 57/96/28 25/97/28
f 25/77/29 57/98/29 58/99/29 26/75/29
f 26/75/30 58/99/30 59/100/30 27/88/30
f 27/88/31 59/100/31 60/101/31 28/102/31
f 28/102/32 60/101/32 61/54/32 29/103/32
f 29/103/33 61/54/33 62/104/33 30/92/33
f 30/92/34 62/104/34 63/105/34 31/106/34
f 31/106/35 63/105/35 64/107/35 32/95/35
f 33/97/36 1/108/36 32/109/36 64/110/36
